<?xml version="1.0" encoding="UTF-8" standalone="no"?>
<svg
   width="960"
   height="280"
   viewBox="0 0 960 280"
   role="img"
   aria-labelledby="title desc"
   version="1.1"
   id="svg22"
   xmlns="http://www.w3.org/2000/svg"
   xmlns:svg="http://www.w3.org/2000/svg">
  <defs
     id="defs26" />
  <title
     id="title">CRM Pro — assinatura horizontal com tagline</title>
  <desc
     id="desc">Logotipo CRM Pro com símbolo modular entrelaçado e wordmark.</desc>
  <g
     transform="matrix(0.92,0,0,0.92,34,12)"
     id="g10">
    <path
       id="rect4"
       style="fill:none;stroke:#9186ff;stroke-width:28"
       d="m 74,34 h 54 c 19.944,0 36,16.056 36,36 v 54 c 0,19.944 -16.056,36 -36,36 H 74 C 54.056,160 38,143.944 38,124 V 70 C 38,50.056 54.056,34 74,34 Z" />
    <path
       id="rect6"
       style="fill:none;stroke:#3bdcf2;stroke-width:28"
       d="m 128,88 h 54 c 19.944,0 36,16.056 36,36 v 54 c 0,19.944 -16.056,36 -36,36 h -54 c -19.944,0 -36,-16.056 -36,-36 v -54 c 0,-19.944 16.056,-36 36,-36 z" />
    <path
       d="m 73,160 h 39"
       fill="none"
       stroke="#9186ff"
       stroke-width="28"
       stroke-linecap="butt"
       id="path8" />
  </g>
  <g
     transform="translate(290,158)"
     id="g18">
    <g
       aria-label="CRM"
       id="text12"
       style="font-weight:700;font-size:112px;font-family:'DejaVu Sans', sans-serif;letter-spacing:-6.16;fill:#f8f9ff">
      <path
         d="m 75.03125,-4.484375 q -5.796875,3.0078125 -12.085938,4.5390625 -6.289062,1.53125 -13.125,1.53125 -20.398437,0 -32.320312,-11.375 Q 5.578125,-21.21875 5.578125,-40.742187 5.578125,-60.320312 17.5,-71.695312 29.421875,-83.125 49.820312,-83.125 q 6.835938,0 13.125,1.53125 6.289063,1.53125 12.085938,4.539063 v 16.898437 q -5.851563,-3.992187 -11.539063,-5.851562 -5.6875,-1.859375 -11.976562,-1.859375 -11.265625,0 -17.71875,7.21875 -6.453125,7.21875 -6.453125,19.90625 0,12.632812 6.453125,19.851562 6.453125,7.21875 17.71875,7.21875 6.289062,0 11.976562,-1.859375 5.6875,-1.859375 11.539063,-5.851562 z"
         id="path30" />
      <path
         d="m 116.23062,-45.445312 q 6.61719,0 9.46094,-2.460938 Q 128.59,-50.367187 128.59,-56 q 0,-5.578125 -2.89844,-7.984375 -2.84375,-2.40625 -9.46094,-2.40625 h -8.85937 v 20.945313 z m -8.85937,14.546875 V 0 H 86.316559 v -81.648437 h 32.156251 q 16.13281,0 23.625,5.414062 7.54687,5.414063 7.54687,17.117188 0,8.09375 -3.9375,13.289062 -3.88281,5.195313 -11.75781,7.65625 4.32031,0.984375 7.71094,4.484375 3.44531,3.445313 6.94531,10.5 L 160.03531,0 h -22.42188 l -9.95312,-20.289062 q -3.00781,-6.125 -6.125,-8.367188 -3.0625,-2.242187 -8.20313,-2.242187 z"
         id="path32" />
      <path
         d="m 166.39874,-81.648437 h 26.79688 l 18.59375,43.695312 18.70312,-43.695312 h 26.74219 V 0 h -19.90625 v -59.71875 l -18.8125,44.023437 H 205.17218 L 186.35968,-59.71875 V 0 h -19.96094 z"
         id="path34" />
    </g>
    <path
       id="rect14"
       style="fill:#9186ff"
       d="m 323.68001,-82.879997 h 100.80001 c 14.27104,0 25.76,11.48896 25.76,25.76 v 35.84 c 0,14.2710403 -11.48896,25.7600004 -25.76,25.7600004 H 323.68001 c -14.27104,0 -25.76,-11.4889601 -25.76,-25.7600004 v -35.84 c 0,-14.27104 11.48896,-25.76 25.76,-25.76 z" />
    <g
       aria-label="PRO"
       id="text16"
       style="font-weight:700;font-size:43.68px;font-family:'DejaVu Sans', sans-serif;letter-spacing:2.02;text-anchor:middle;fill:#ffffff">
      <path
         d="m 324.67956,-54.80289 h 13.62867 q 6.07851,0 9.32039,2.708672 3.2632,2.687344 3.2632,7.678125 0,5.012109 -3.2632,7.720781 -3.24188,2.687344 -9.32039,2.687344 h -5.41735 v 11.047969 h -8.21132 z m 8.21132,5.950547 v 8.893828 h 4.5429 q 2.38875,0 3.68976,-1.151719 1.30102,-1.173046 1.30102,-3.305859 0,-2.132812 -1.30102,-3.284531 -1.30101,-1.151719 -3.68976,-1.151719 z"
         id="path38" />
      <path
         d="m 370.37956,-40.683671 q 2.5807,0 3.68976,-0.959766 1.13039,-0.959765 1.13039,-3.156562 0,-2.175469 -1.13039,-3.113907 -1.10906,-0.938437 -3.68976,-0.938437 h -3.45516 v 8.168672 z m -3.45516,5.673281 v 12.050391 h -8.21133 V -54.80289 h 12.54094 q 6.2918,0 9.21375,2.111484 2.94328,2.111485 2.94328,6.675704 0,3.156562 -1.53562,5.182734 -1.5143,2.026172 -4.58555,2.985938 1.68492,0.383906 3.00727,1.748906 1.34367,1.343672 2.70867,4.095 l 4.45758,9.043125 h -8.74454 l -3.88171,-7.912735 q -1.17305,-2.38875 -2.38875,-3.263203 -1.19438,-0.874453 -3.19922,-0.874453 z"
         id="path40" />
      <path
         d="m 408.9133,-49.428202 q -3.75375,0 -5.82257,2.772656 -2.06883,2.772656 -2.06883,7.806094 0,5.012109 2.06883,7.784765 2.06882,2.772657 5.82257,2.772657 3.77508,0 5.84391,-2.772657 2.06883,-2.772656 2.06883,-7.784765 0,-5.033438 -2.06883,-7.806094 -2.06883,-2.772656 -5.84391,-2.772656 z m 0,-5.950547 q 7.67813,0 12.02907,4.393593 4.35093,4.393594 4.35093,12.135704 0,7.720781 -4.35093,12.114375 -4.35094,4.393594 -12.02907,4.393594 -7.65679,0 -12.02906,-4.393594 -4.35094,-4.393594 -4.35094,-12.114375 0,-7.74211 4.35094,-12.135704 4.37227,-4.393593 12.02906,-4.393593 z"
         id="path42" />
    </g>
  </g>
  <g
     aria-label="CONEXÕES QUE AVANÇAM"
     id="text20"
     style="font-weight:600;font-size:21px;font-family:'DejaVu Sans', sans-serif;letter-spacing:3.4;fill:#b8c0d4">
    <path
       d="m 307.06836,209.15918 q -1.08691,0.56396 -2.26611,0.85107 -1.1792,0.28711 -2.46094,0.28711 -3.82471,0 -6.06006,-2.13281 -2.23535,-2.14307 -2.23535,-5.80371 0,-3.6709 2.23535,-5.80371 2.23535,-2.14307 6.06006,-2.14307 1.28174,0 2.46094,0.28711 1.1792,0.28711 2.26611,0.85108 v 3.16845 q -1.09717,-0.74853 -2.16357,-1.09716 -1.06641,-0.34864 -2.24561,-0.34864 -2.11231,0 -3.32227,1.35352 -1.20996,1.35351 -1.20996,3.73242 0,2.36865 1.20996,3.72217 1.20996,1.35351 3.32227,1.35351 1.1792,0 2.24561,-0.34863 1.0664,-0.34863 2.16357,-1.09717 z"
       id="path45" />
    <path
       d="m 320.73252,197.2749 q -1.80469,0 -2.79932,1.33301 -0.99463,1.33301 -0.99463,3.75293 0,2.40967 0.99463,3.74268 0.99463,1.333 2.79932,1.333 1.81494,0 2.80957,-1.333 0.99463,-1.33301 0.99463,-3.74268 0,-2.41992 -0.99463,-3.75293 -0.99463,-1.33301 -2.80957,-1.33301 z m 0,-2.86084 q 3.69141,0 5.7832,2.11231 2.0918,2.1123 2.0918,5.83447 0,3.71191 -2.0918,5.82422 -2.09179,2.1123 -5.7832,2.1123 -3.68115,0 -5.7832,-2.1123 -2.0918,-2.11231 -2.0918,-5.82422 0,-3.72217 2.0918,-5.83447 2.10205,-2.11231 5.7832,-2.11231 z"
       id="path47" />
    <path
       d="m 334.99141,194.69092 h 4.40918 l 5.56787,10.5 v -10.5 h 3.74267 V 210 h -4.40918 l -5.56787,-10.5 V 210 h -3.74267 z"
       id="path49" />
    <path
       d="m 355.9666,194.69092 h 10.65381 v 2.98388 h -6.70605 v 2.85059 h 6.30615 v 2.98389 h -6.30615 v 3.50683 H 366.846 V 210 h -10.8794 z"
       id="path51" />
    <path
       d="M 382.24306,202.18652 387.55459,210 h -4.11182 L 379.86416,204.77051 376.31631,210 h -4.13233 l 5.31153,-7.81348 -5.10645,-7.4956 h 4.12207 l 3.35303,4.93213 3.34277,-4.93213 h 4.14258 z"
       id="path53" />
    <path
       d="m 399.54736,197.2749 q -1.80468,0 -2.79931,1.33301 -0.99463,1.33301 -0.99463,3.75293 0,2.40967 0.99463,3.74268 0.99463,1.333 2.79931,1.333 1.81494,0 2.80957,-1.333 0.99463,-1.33301 0.99463,-3.74268 0,-2.41992 -0.99463,-3.75293 -0.99463,-1.33301 -2.80957,-1.33301 z m 0,-2.86084 q 3.69141,0 5.78321,2.11231 2.09179,2.1123 2.09179,5.83447 0,3.71191 -2.09179,5.82422 -2.0918,2.1123 -5.78321,2.1123 -3.68115,0 -5.7832,-2.1123 -2.0918,-2.11231 -2.0918,-5.82422 0,-3.72217 2.0918,-5.83447 2.10205,-2.11231 5.7832,-2.11231 z m 0.0308,-1.68164 -0.57421,-0.35888 q -0.0308,-0.0205 -0.10254,-0.0615 -0.46143,-0.2666 -0.74854,-0.2666 -0.32812,0 -0.5332,0.30762 -0.20508,0.30761 -0.20508,0.82031 v 0.0615 h -1.42529 q 0,-0.0513 0.0102,-0.15381 0.0103,-0.10253 0.0103,-0.1538 0,-1.08692 0.54345,-1.75342 0.55371,-0.66651 1.4458,-0.66651 0.3794,0 0.75879,0.1333 0.3794,0.12305 0.7793,0.36915 l 0.60498,0.3999 q 0.21533,0.14355 0.41016,0.22558 0.20507,0.0718 0.36914,0.0718 0.37939,0 0.57422,-0.30762 0.20507,-0.30761 0.20507,-0.89209 h 1.4253 q 0,0.0615 -0.0103,0.16407 -0.0102,0.10254 -0.0102,0.15381 0,1.08691 -0.55371,1.75341 -0.54346,0.65625 -1.43555,0.65625 -0.38965,0 -0.74853,-0.11279 -0.35889,-0.11279 -0.78956,-0.38965 z"
       id="path55" />
    <path
       d="m 413.80625,194.69092 h 10.65381 v 2.98388 h -6.70605 v 2.85059 h 6.30615 v 2.98389 h -6.30615 v 3.50683 h 6.93164 V 210 h -10.8794 z"
       id="path57" />
    <path
       d="m 442.20528,195.17285 v 3.24024 q -1.26123,-0.56397 -2.46094,-0.85108 -1.19971,-0.28711 -2.26611,-0.28711 -1.41504,0 -2.0918,0.38965 -0.67676,0.38965 -0.67676,1.20996 0,0.61524 0.45117,0.96387 0.46143,0.33838 1.66114,0.58447 l 1.68164,0.33838 q 2.55322,0.5127 3.62988,1.55859 1.07666,1.0459 1.07666,2.97364 0,2.53271 -1.50732,3.77343 -1.49708,1.23047 -4.5835,1.23047 -1.45606,0 -2.92236,-0.27685 -1.46631,-0.27686 -2.93262,-0.82031 v -3.33252 q 1.46631,0.77929 2.83008,1.17919 1.37402,0.38965 2.6455,0.38965 1.292,0 1.97901,-0.43066 0.68701,-0.43066 0.68701,-1.23047 0,-0.71777 -0.47168,-1.10742 -0.46143,-0.38965 -1.85596,-0.69727 l -1.52783,-0.33838 q -2.29687,-0.49218 -3.36328,-1.56884 -1.05615,-1.07666 -1.05615,-2.90186 0,-2.28662 1.47656,-3.51709 1.47656,-1.23047 4.24512,-1.23047 1.26123,0 2.59424,0.19483 1.333,0.18457 2.7583,0.56396 z"
       id="path59" />
    <path
       d="m 468.20059,210.27686 h -0.30762 q -3.78369,0 -5.88574,-2.0918 -2.10205,-2.0918 -2.10205,-5.82422 0,-3.72217 2.0918,-5.83447 2.10205,-2.11231 5.7832,-2.11231 3.72217,0 5.79346,2.0918 2.08154,2.0918 2.08154,5.85498 0,2.58398 -1.10742,4.4502 -1.09717,1.86621 -3.16846,2.80957 l 3.08643,3.44531 h -3.76318 z m -0.42041,-13.00196 q -1.80469,0 -2.79931,1.33301 -0.99463,1.33301 -0.99463,3.75293 0,2.46094 0.97412,3.77344 0.97412,1.30224 2.81982,1.30224 1.81494,0 2.80957,-1.333 0.99463,-1.33301 0.99463,-3.74268 0,-2.41992 -0.99463,-3.75293 -0.99463,-1.33301 -2.80957,-1.33301 z"
       id="path61" />
    <path
       d="m 482.03906,194.69092 h 3.94776 v 9.17724 q 0,1.89698 0.61523,2.71729 0.62549,0.81006 2.03027,0.81006 1.41504,0 2.03028,-0.81006 0.62549,-0.82031 0.62549,-2.71729 v -9.17724 h 3.94775 v 9.17724 q 0,3.25049 -1.63037,4.83985 -1.63037,1.58935 -4.97315,1.58935 -3.33252,0 -4.96289,-1.58935 -1.63037,-1.58936 -1.63037,-4.83985 z"
       id="path63" />
    <path
       d="m 502.4913,194.69092 h 10.65381 v 2.98388 h -6.70605 v 2.85059 h 6.30615 v 2.98389 h -6.30615 v 3.50683 h 6.93164 V 210 h -10.8794 z"
       id="path65" />
    <path
       d="m 540.23759,207.21094 h -6.17285 L 533.09062,210 h -3.96826 l 5.67041,-15.30908 h 4.70654 L 545.16972,210 h -3.96826 z m -5.18847,-2.84033 h 4.19385 l -2.0918,-6.09082 z"
       id="path67" />
    <path
       d="m 547.34952,194.69092 h 3.96826 l 4.06055,11.2998 4.05029,-11.2998 h 3.96826 L 557.72647,210 h -4.70654 z"
       id="path69" />
    <path
       d="m 576.69189,207.21094 h -6.17285 L 569.54492,210 h -3.96826 l 5.67041,-15.30908 h 4.70654 L 581.62402,210 h -3.96826 z m -5.18847,-2.84033 h 4.19385 l -2.0918,-6.09082 z"
       id="path71" />
    <path
       d="m 587.05429,194.69092 h 4.40918 l 5.56787,10.5 v -10.5 h 3.74268 V 210 h -4.40918 l -5.56787,-10.5 V 210 h -3.74268 z"
       id="path73" />
    <path
       d="m 620.1701,209.15918 q -1.08691,0.56396 -2.26611,0.85107 -1.1792,0.28711 -2.46094,0.28711 -3.8247,0 -6.06005,-2.13281 -2.23536,-2.14307 -2.23536,-5.80371 0,-3.6709 2.23536,-5.80371 2.23535,-2.14307 6.06005,-2.14307 1.28174,0 2.46094,0.28711 1.1792,0.28711 2.26611,0.85108 v 3.16845 q -1.09716,-0.74853 -2.16357,-1.09716 -1.06641,-0.34864 -2.2456,-0.34864 -2.11231,0 -3.32227,1.35352 -1.20996,1.35351 -1.20996,3.73242 0,2.36865 1.20996,3.72217 1.20996,1.35351 3.32227,1.35351 1.17919,0 2.2456,-0.34863 1.06641,-0.34863 2.16357,-1.09717 z M 616.0788,210 q 0.59472,0.63574 0.87158,1.1792 0.28711,0.54346 0.28711,1.02539 0,0.97412 -0.63574,1.43555 -0.62549,0.47168 -1.92774,0.47168 -0.49219,0 -1.01514,-0.0718 -0.52294,-0.0615 -1.05615,-0.19483 l -0.0102,-1.55859 q 0.51269,0.16406 0.9331,0.23584 0.43067,0.082 0.76905,0.082 0.59472,0 0.92285,-0.23584 0.33838,-0.23584 0.33838,-0.64599 0,-0.26661 -0.22559,-0.68702 Q 615.11493,210.61523 614.6535,210 Z"
       id="path75" />
    <path
       d="m 636.13116,207.21094 h -6.17285 L 628.98419,210 h -3.96826 l 5.67041,-15.30908 h 4.70654 L 641.06329,210 h -3.96826 z m -5.18847,-2.84033 h 4.19385 l -2.0918,-6.09082 z"
       id="path77" />
    <path
       d="m 646.49356,194.69092 h 5.02441 l 3.48633,8.19287 3.50684,-8.19287 h 5.01416 V 210 h -3.73242 v -11.19727 l -3.52735,8.2544 h -2.50195 l -3.52734,-8.2544 V 210 h -3.74268 z"
       id="path79" />
  </g>
</svg>
