<?xml version="1.0" encoding="UTF-8"?>
<svg version="1.1" xmlns="http://www.w3.org/2000/svg" width="1254" height="1254">
<path d="M0 0 C413.82 0 827.64 0 1254 0 C1254 413.82 1254 827.64 1254 1254 C840.18 1254 426.36 1254 0 1254 C0 840.18 0 426.36 0 0 Z " fill="#FCFCFC" transform="translate(0,0)"/>
<path d="M0 0 C0.94183136 -0.00100708 1.88366272 -0.00201416 2.85403442 -0.00305176 C75.18778326 0.04853338 148.56371182 15.10087963 215.40258789 42.74121094 C217.86178062 43.75500662 220.32238821 44.75511003 222.79394531 45.73730469 C233.67017578 50.09014233 244.16616409 55.04250801 254.625 60.3125 C255.86333084 60.9336972 255.86333084 60.9336972 257.12667847 61.56744385 C271.11276557 68.59511185 284.71000794 76.07300633 298.0625 84.25 C299.90335384 85.35985945 301.74450074 86.46923297 303.5859375 87.578125 C314.75461074 94.3500762 325.5100791 101.55816076 336.0625 109.25 C336.82804199 109.80300781 337.59358398 110.35601562 338.38232422 110.92578125 C357.88343574 125.01588099 376.48687954 140.1816466 394.1328125 156.5390625 C396.0980503 158.35756254 398.06840589 160.16591788 400.0546875 161.9609375 C409.1851432 170.22471843 418.1758678 178.67931288 426.1640625 188.0703125 C428.18223658 190.38747533 430.2655595 192.63178457 432.36328125 194.87670898 C438.20422191 201.1316245 443.72299384 207.55769949 449.0625 214.25 C449.98341185 215.37969208 450.90534111 216.50855532 451.828125 217.63671875 C475.24417713 246.3904817 495.9005677 278.02231217 512.625 311.125 C512.97216064 311.80989502 513.31932129 312.49479004 513.67700195 313.20043945 C516.0625 318.00386217 516.0625 318.00386217 516.0625 320.25 C516.7225 320.25 517.3825 320.25 518.0625 320.25 C520.91407021 325.85170117 523.62229293 331.45450821 526.0625 337.25 C526.85222569 338.95923147 527.6441022 340.66746996 528.4375 342.375 C530.78672355 347.50378534 532.80976316 352.71746057 534.75390625 358.01171875 C536.02819873 361.32076049 536.02819873 361.32076049 537.828125 364.60546875 C541.28404064 371.40670428 543.67746324 378.70560477 546.25 385.875 C546.53562805 386.6683374 546.8212561 387.4616748 547.11553955 388.27905273 C566.85674193 443.26640353 566.85674193 443.26640353 570.0625 471.25 C570.3925 471.58 570.7225 471.91 571.0625 472.25 C571.349557 474.37331052 571.50995791 476.4974611 571.68359375 478.6328125 C572.01530881 481.37853844 572.01530881 481.37853844 573.02368164 484.44677734 C574.05871702 488.23615013 574.62057897 491.81840234 575.0625 495.71875 C575.14371094 496.4343811 575.22492188 497.15001221 575.30859375 497.8873291 C575.47956789 499.40990315 575.64747797 500.93282404 575.8125 502.45605469 C576.05291135 504.66201664 576.30682055 506.866076 576.5625 509.0703125 C579.34884038 533.790488 580.42441811 558.53508354 580.37817383 583.39428711 C580.37352239 586.09530197 580.3805762 588.79586847 580.39868164 591.49682617 C580.49347365 605.85176304 580.25602848 620.12605379 578.85546875 634.42578125 C578.75575272 635.52963669 578.65603668 636.63349213 578.55329895 637.77079773 C576.48818907 656.28622376 566.92831772 673.48791979 552.55078125 685.31640625 C535.65739453 697.59527289 516.48334686 702.8005788 495.74560547 699.92919922 C481.8449167 697.37499809 471.60439489 691.57176817 461.0625 682.25 C460.4128125 681.70730469 459.763125 681.16460938 459.09375 680.60546875 C448.91763343 671.47009137 441.52581484 655.38869684 440.69140625 641.88671875 C440.48238907 634.48323523 441.03453868 627.16574531 441.7902832 619.80688477 C444.99849857 588.19948941 443.18182776 556.68771852 439.30596924 525.23779297 C439.08919043 523.46791276 438.8815955 521.69691317 438.67529297 519.92578125 C432.49349908 467.16007622 413.4677696 417.54866606 390.0625 370.25 C389.67239746 369.45899902 389.28229492 368.66799805 388.88037109 367.85302734 C377.43285343 344.85004507 362.72791187 323.7837109 345.84765625 304.46875 C343.42081742 301.68678403 341.10778251 298.82946885 338.8125 295.9375 C328.12565399 282.77395793 316.01664546 270.09184611 303.1484375 259.0546875 C300.81224499 257.03348724 298.53285149 254.95621161 296.25 252.875 C291.5271626 248.62373185 286.69521393 244.54405041 281.72802734 240.58105469 C280.55079378 239.6402342 279.37696072 238.69515122 278.20556641 237.74707031 C252.56198866 217.03422691 224.44854596 200.06486486 195.0625 185.25 C194.3622168 184.88986816 193.66193359 184.52973633 192.94042969 184.15869141 C168.10837527 171.42641287 140.90484543 162.60500886 114.0625 155.25 C112.98790527 154.95512695 111.91331055 154.66025391 110.80615234 154.35644531 C96.35587912 150.44877846 81.85677701 147.49718033 67.0625 145.25 C65.93829147 145.0791539 64.81408295 144.9083078 63.6558075 144.73228455 C43.89879231 141.81369556 24.56612387 140.60406989 4.60888672 140.72851562 C0.93013149 140.7512616 -2.74746164 140.73775219 -6.42617702 140.71472645 C-27.52113194 140.60362245 -48.05432617 142.31716527 -68.9375 145.25 C-69.87876236 145.38048233 -70.82002472 145.51096466 -71.78981018 145.645401 C-118.45075727 152.19311814 -164.3499332 167.53325233 -206.05712891 189.27294922 C-208.01469532 190.2901111 -209.98148465 191.28782451 -211.94921875 192.28515625 C-244.18117257 208.79226078 -273.71299688 230.62154832 -300.42578125 254.984375 C-301.84145886 256.26134703 -303.26388513 257.53120512 -304.70825195 258.77563477 C-309.8541625 263.21089247 -314.71015349 267.87164527 -319.5 272.6875 C-320.57411133 273.75581055 -320.57411133 273.75581055 -321.66992188 274.84570312 C-326.29868031 279.48288514 -330.68007811 284.2712712 -334.9375 289.25 C-335.81500476 290.25920103 -336.69260105 291.26832248 -337.5703125 292.27734375 C-352.37236006 309.56186637 -365.92318205 327.92303402 -377.9375 347.25 C-378.59806396 348.30405029 -378.59806396 348.30405029 -379.27197266 349.37939453 C-399.25120698 381.39481454 -414.64735931 415.21614885 -425.95507812 451.14990234 C-426.76013839 453.69032364 -427.59169654 456.21663437 -428.453125 458.73828125 C-432.32832289 470.35161163 -434.75262972 482.31441733 -437.29638672 494.27636719 C-437.84484834 496.82026 -438.42681493 499.35292671 -439.01953125 501.88671875 C-440.14402627 506.92310039 -440.78820789 512.00914898 -441.4375 517.125 C-442.14986343 522.69082859 -442.90574188 528.2179813 -443.9609375 533.73046875 C-447.59012183 553.31423867 -447.14460829 573.59831234 -447.1875 593.4375 C-447.19526459 595.07004227 -447.19526459 595.07004227 -447.20318604 596.73556519 C-447.2852362 618.65429688 -446.03748883 640.33048064 -442.25 661.9375 C-442.12122467 662.68904358 -441.99244934 663.44058716 -441.85977173 664.21490479 C-434.58044888 706.57185538 -422.14962119 747.07614531 -403.96533203 786.03417969 C-402.97770723 788.16332048 -402.01513274 790.30205944 -401.05859375 792.4453125 C-383.52892483 831.30243837 -358.25642361 870.30373179 -329.2277832 901.69165039 C-327.05927197 904.11397522 -325.05180668 906.60499708 -323.04296875 909.16015625 C-317.68352937 915.74050368 -311.76226961 921.69232332 -305.73510742 927.65820312 C-303.86899491 929.50594598 -302.01112288 931.36167965 -300.15429688 933.21875 C-294.25029892 939.1053592 -288.31467358 944.87210387 -281.9375 950.25 C-280.84205341 951.21030768 -279.74826394 952.17250942 -278.65625 953.13671875 C-250.66886407 977.58314251 -218.52412261 998.15351661 -185.04541016 1014.22851562 C-182.7629461 1015.33458809 -180.49710644 1016.47124522 -178.23046875 1017.609375 C-157.34058655 1027.97613389 -135.27353125 1035.63175314 -112.9375 1042.25 C-111.83656006 1042.57943604 -111.83656006 1042.57943604 -110.71337891 1042.91552734 C-90.02611582 1049.00559219 -68.28860794 1053.13548946 -46.9375 1056.125 C-45.80574341 1056.28669678 -45.80574341 1056.28669678 -44.65112305 1056.45166016 C-30.83787671 1058.21480111 -16.92128969 1058.32591043 -3.01953125 1058.2421875 C-1.70089081 1058.23440277 -0.38225037 1058.22661804 0.97634888 1058.21859741 C6.46457909 1058.18284933 11.95267234 1058.14058129 17.44067383 1058.07861328 C20.18492884 1058.04814192 22.92902567 1058.02581523 25.67341614 1058.01223755 C28.23005907 1057.99920089 30.7866785 1057.97435461 33.34306335 1057.9357605 C44.91567456 1057.90127946 50.80498898 1060.22144899 59.0625 1068.25 C60.16960327 1069.31572739 60.16960327 1069.31572739 61.29907227 1070.40298462 C63.74904653 1072.78848084 66.17419061 1075.19695164 68.59375 1077.61328125 C69.47027222 1078.48647507 70.34679443 1079.35966888 71.24987793 1080.25932312 C73.0865118 1082.09092492 74.9218206 1083.9238563 76.75585938 1085.75805664 C78.6386578 1087.63938106 80.52332448 1089.5185168 82.41210938 1091.39379883 C85.14433172 1094.10782211 87.86989532 1096.82836307 90.59375 1099.55078125 C91.8685321 1100.81478508 91.8685321 1100.81478508 93.16906738 1102.10432434 C94.3315802 1103.2714521 94.3315802 1103.2714521 95.51757812 1104.4621582 C96.20404419 1105.14719925 96.89051025 1105.8322403 97.59777832 1106.53804016 C99.0625 1108.25 99.0625 1108.25 99.0625 1110.25 C99.60900208 1110.471185 100.15550415 1110.69237 100.71856689 1110.92025757 C103.80201222 1112.66953449 106.09766292 1115.02261651 108.56542969 1117.52587891 C109.10246017 1118.06261734 109.63949066 1118.59935577 110.1927948 1119.15235901 C111.96143859 1120.92239283 113.72289824 1122.69939857 115.484375 1124.4765625 C116.71133466 1125.70725344 117.93873749 1126.9375027 119.16656494 1128.16732788 C122.39317488 1131.40156516 125.61373291 1134.64176408 128.83306885 1137.88323975 C132.12075672 1141.19140534 135.41413068 1144.49389946 138.70703125 1147.796875 C145.16443298 1154.27571079 151.61545568 1160.76085869 158.0625 1167.25 C154.85289951 1169.76928309 152.26428574 1170.98783042 148.3125 1172.08203125 C147.15983643 1172.40284668 146.00717285 1172.72366211 144.81958008 1173.05419922 C143.57974365 1173.38693848 142.33990723 1173.71967773 141.0625 1174.0625 C140.42766693 1174.23541565 139.79283386 1174.4083313 139.13876343 1174.58648682 C125.23347799 1178.36953123 111.18945256 1181.41029361 97.0625 1184.25 C96.19633057 1184.42692383 95.33016113 1184.60384766 94.43774414 1184.78613281 C65.49843546 1190.66242418 37.45134919 1193.43761107 7.93701172 1193.43530273 C4.82896184 1193.43748842 1.72126892 1193.45573892 -1.38671875 1193.47460938 C-15.66491802 1193.51527157 -29.73475403 1192.68657324 -43.9375 1191.25 C-44.7881604 1191.16487152 -45.6388208 1191.07974304 -46.51525879 1190.99203491 C-51.10149393 1190.52729687 -55.68294257 1190.02889317 -60.26220703 1189.5 C-62.49571444 1189.24330959 -64.73019417 1188.99652889 -66.96484375 1188.75 C-68.42454559 1188.5839161 -69.88418385 1188.4172722 -71.34375 1188.25 C-72.61541016 1188.105625 -73.88707031 1187.96125 -75.19726562 1187.8125 C-78.56602234 1187.30586714 -81.73191203 1186.57792417 -85.0184021 1185.71661377 C-87.81218629 1185.03732681 -90.6211866 1184.68852354 -93.47265625 1184.3359375 C-100.54817982 1183.36865073 -107.45892181 1181.93674733 -114.41430664 1180.328125 C-116.36919027 1179.87634265 -118.32595524 1179.43360208 -120.28320312 1178.9921875 C-134.259987 1175.8166692 -148.00969475 1172.02705116 -161.6875 1167.75 C-163.52248047 1167.18345703 -163.52248047 1167.18345703 -165.39453125 1166.60546875 C-207.82701591 1153.39920882 -249.00032229 1134.76097966 -287.09179688 1111.95068359 C-289.82961896 1110.31447317 -292.57709371 1108.69590887 -295.328125 1107.08203125 C-305.84348123 1100.88636827 -315.98935152 1094.31773344 -325.9375 1087.25 C-327.16398743 1086.38531018 -328.39054905 1085.52072558 -329.6171875 1084.65625 C-347.05306843 1072.32338063 -363.83792573 1059.27750925 -379.9375 1045.25 C-380.69804687 1044.59128906 -381.45859375 1043.93257812 -382.2421875 1043.25390625 C-413.2237951 1016.31608278 -413.2237951 1016.31608278 -425.765625 1001.703125 C-428.1138086 999.05086007 -430.53181681 996.47524069 -432.96264648 993.89892578 C-439.25407899 987.22803113 -445.21866591 980.42261178 -450.9375 973.25 C-451.91729687 972.05957047 -452.89921168 970.87088217 -453.8828125 969.68359375 C-481.35631408 936.44259337 -504.70090925 899.96978039 -524.14233398 861.51464844 C-524.44838058 860.91182037 -524.75442719 860.30899231 -525.06974792 859.68789673 C-525.90185419 858.04645131 -526.72892602 856.40245653 -527.55566406 854.75830078 C-528.82746982 852.17460153 -528.82746982 852.17460153 -530.9375 850.25 C-531.67483896 848.60774504 -532.40528841 846.96182367 -533.08984375 845.296875 C-533.97626998 843.15638031 -534.92056558 841.04848436 -535.875 838.9375 C-537.64574758 834.9667327 -539.27556664 830.95247415 -540.875 826.91015625 C-542.37491161 823.15486284 -543.93542817 819.42568388 -545.49609375 815.6953125 C-545.97175781 814.55835938 -546.44742188 813.42140625 -546.9375 812.25 C-547.30133789 811.40622803 -547.66517578 810.56245605 -548.04003906 809.69311523 C-551.34812117 801.93278779 -554.16519563 794.07034715 -556.8125 786.0625 C-557.02715912 785.41548126 -557.24181824 784.76846252 -557.46298218 784.10183716 C-563.74421269 765.12760695 -568.97654229 745.9177266 -573.43505859 726.43603516 C-573.87030158 724.54236864 -574.31872002 722.65173953 -574.76953125 720.76171875 C-578.47675197 705.15967218 -581.40483433 689.52584148 -583.265625 673.59741211 C-583.56060944 671.07864284 -583.86920686 668.56182288 -584.1796875 666.04492188 C-587.11916579 641.82249863 -588.34869926 617.7661079 -588.3125 593.375 C-588.31226082 592.65720493 -588.31202164 591.93940987 -588.31177521 591.19986343 C-588.30121199 566.0464397 -587.34153116 541.20079029 -583.9375 516.25 C-583.82859436 515.44701477 -583.71968872 514.64402954 -583.60748291 513.81671143 C-580.57215744 491.69588665 -576.28118136 469.92795361 -570.9375 448.25 C-570.64681641 447.04956055 -570.35613281 445.84912109 -570.05664062 444.61230469 C-563.89040045 419.38244562 -555.97190422 394.22787182 -545.9375 370.25 C-545.33156006 368.78892822 -545.33156006 368.78892822 -544.71337891 367.29833984 C-543.35995726 364.04903201 -541.99500361 360.80484981 -540.625 357.5625 C-540.14442139 356.42506348 -539.66384277 355.28762695 -539.16870117 354.11572266 C-535.60897208 345.73476946 -531.90112635 337.4478074 -527.9375 329.25 C-527.2775 329.25 -526.6175 329.25 -525.9375 329.25 C-525.76927734 328.17987671 -525.76927734 328.17987671 -525.59765625 327.08813477 C-524.35349379 321.73924845 -521.46555822 317.02988592 -518.9375 312.1875 C-518.63093475 311.59852936 -518.32436951 311.00955872 -518.0085144 310.40274048 C-500.07301016 276.05770439 -478.06168471 243.79668898 -453.36132812 213.97802734 C-452.07686123 212.4191356 -450.81071063 210.84519561 -449.546875 209.26953125 C-444.55345861 203.04572269 -439.26310924 197.17174286 -433.81640625 191.34765625 C-431.4511019 188.81641953 -429.15610103 186.23262046 -426.875 183.625 C-422.21925288 178.43007628 -417.29911379 173.50216511 -412.375 168.5625 C-411.57118896 167.75409668 -410.76737793 166.94569336 -409.93920898 166.11279297 C-405.65800039 161.84256071 -401.30183072 157.72808441 -396.7175293 153.78491211 C-394.30272908 151.70263959 -391.96699378 149.53852147 -389.625 147.375 C-385.19739668 143.34163533 -380.66984735 139.48541111 -376.0078125 135.7265625 C-373.71935532 133.88065683 -371.44538199 132.02188292 -369.1796875 130.1484375 C-360.67249782 123.13330036 -352.01550987 116.50568673 -342.9375 110.25 C-342.13038574 109.69054687 -341.32327148 109.13109375 -340.49169922 108.5546875 C-296.27920068 77.94540846 -249.49755843 52.7238675 -198.9375 34.25 C-198.29208252 34.01367859 -197.64666504 33.77735718 -196.98168945 33.53387451 C-179.31189982 27.09062682 -161.4319716 21.87560777 -143.1875 17.3125 C-142.28045319 17.08488983 -141.37340637 16.85727966 -140.43887329 16.62277222 C-121.50700348 11.90404628 -102.45748323 8.24593815 -83.125 5.625 C-81.97318237 5.46674744 -81.97318237 5.46674744 -80.7980957 5.30529785 C-67.54549432 3.49166165 -54.29532261 2.02740212 -40.9375 1.25 C-40.24800262 1.20903198 -39.55850525 1.16806396 -38.84811401 1.12585449 C-25.89755591 0.37013264 -12.97221598 0.00982645 0 0 Z " fill="#017EFA" transform="translate(623.9375,23.75)"/>
<path d="M0 0 C48.61750714 -1.79491171 100.45710636 14.30475685 136.7253418 47.52807617 C139.20516771 49.85768516 141.65104606 52.21903925 144.07666016 54.60498047 C145.34353725 55.84636626 146.63373836 57.06389777 147.9296875 58.27490234 C170.75057903 79.93854785 185.62790411 111.12564253 193.41796875 141.22802734 C193.61285889 141.96569336 193.80774902 142.70335937 194.00854492 143.46337891 C198.17901881 160.57169577 197.94607545 178.05297616 197.97291446 195.54192185 C197.97659504 197.64111948 197.98285235 199.74029445 197.98991585 201.83948326 C198.01423695 209.17742305 198.02743176 216.51529347 198.03100586 223.85327148 C198.03466484 230.67643485 198.06477126 237.4991551 198.10641044 244.32218248 C198.14106767 250.20875414 198.15655321 256.09517778 198.15725189 261.9818508 C198.15804393 265.48630138 198.16675447 268.99029418 198.19524956 272.49463844 C198.22620718 276.38617108 198.21739291 280.27705342 198.20483398 284.16870117 C198.22708542 285.90240967 198.22708542 285.90240967 198.24978638 287.67114258 C198.24002274 288.72908524 198.23025909 289.78702789 198.22019958 290.87702942 C198.22221091 291.79517835 198.22422224 292.71332727 198.22629452 293.6592989 C197.32871635 297.19239531 195.61456671 298.12931009 192.60546875 300.10302734 C189.58571863 300.60672534 189.58571863 300.60672534 186.14768219 300.61197853 C184.8345371 300.62364292 183.52139201 300.6353073 182.16845465 300.64732516 C180.71276508 300.6400589 179.25707738 300.63241016 177.8013916 300.62442017 C176.25383214 300.63046073 174.70627865 300.63823845 173.15873575 300.6476053 C168.90399267 300.66821496 164.6495857 300.66378935 160.39481473 300.65524411 C155.80713316 300.65031864 151.21953348 300.66832655 146.63188171 300.68331909 C137.64382259 300.70884153 128.65588289 300.71239704 119.66779363 300.70771857 C112.36435639 300.70415546 105.06095547 300.70764451 97.75752258 300.71616745 C96.71888318 300.71735783 95.68024378 300.71854821 94.61013046 300.71977466 C92.50029178 300.7221981 90.3904531 300.72462637 88.28061444 300.72705941 C68.48697529 300.74882099 48.69340426 300.74448014 28.89976126 300.73228972 C10.78093075 300.72194775 -7.33768483 300.7444698 -25.45647281 300.78248616 C-44.0510297 300.82120242 -62.64548479 300.83776227 -81.24008226 300.83023965 C-91.68353885 300.82640972 -102.12681242 300.83144802 -112.57023621 300.85966873 C-121.45967543 300.88344671 -130.34881896 300.88636232 -139.23826206 300.8620884 C-143.77570557 300.85027614 -148.31260758 300.84820592 -152.85001564 300.8720932 C-157.00154152 300.8936955 -161.15207009 300.88774583 -165.30354816 300.85956983 C-166.80751481 300.85424366 -168.31155819 300.85911 -169.81544989 300.87504156 C-180.93296243 300.98466667 -180.93296243 300.98466667 -184.39050055 298.89902997 C-187.10962192 295.92687364 -188.01926279 292.87640692 -188.01599121 288.93591309 C-188.02720001 287.94134598 -188.03840881 286.94677887 -188.04995728 285.92207336 C-188.03669403 284.84676865 -188.02343079 283.77146393 -188.00976562 282.66357422 C-188.01531464 281.51785446 -188.02086365 280.3721347 -188.02658081 279.19169617 C-188.03839359 275.40129803 -188.01405927 271.61209222 -187.98828125 267.82177734 C-187.98656866 265.17018949 -187.98653489 262.51864824 -187.98840332 259.86706543 C-187.98834975 254.29860113 -187.96862513 248.73047602 -187.93652344 243.16210938 C-187.89992064 236.78324469 -187.89080796 230.40482869 -187.89782095 224.02587271 C-187.90420603 217.84076138 -187.89320781 211.65579941 -187.87385559 205.47071838 C-187.86690087 202.86528759 -187.86369174 200.25984363 -187.86454773 197.65440369 C-187.84649515 161.44605741 -181.66742222 128.17048852 -164.39453125 96.10302734 C-164.07371582 95.49620117 -163.75290039 94.889375 -163.42236328 94.26416016 C-156.4518407 81.14442593 -147.61314037 69.86029182 -137.39453125 59.10302734 C-136.90001465 58.57596191 -136.40549805 58.04889648 -135.89599609 57.50585938 C-105.01444235 24.77533447 -61.17268191 4.66492569 -16.39453125 1.10302734 C-15.29109375 0.99345703 -14.18765625 0.88388672 -13.05078125 0.77099609 C-8.70363283 0.38285784 -4.35968397 0.1875802 0 0 Z " fill="#017EFA" transform="translate(621.39453125,592.89697265625)"/>
<path d="M0 0 C3.76238958 1.4483802 7.36357023 3.13470834 10.96826172 4.93066406 C11.69388809 5.28931046 12.41951447 5.64795685 13.16712952 6.01747131 C15.52311582 7.18573663 17.87509423 8.361734 20.22607422 9.54003906 C21.03174835 9.94298187 21.83742249 10.34592468 22.66751099 10.76107788 C36.57445175 17.73275536 50.07246904 25.17613774 63.35107422 33.29003906 C65.19468033 34.40095496 67.03843034 35.5116321 68.88232422 36.62207031 C80.04780102 43.39357241 90.80103223 50.59993385 101.35107422 58.29003906 C102.11661621 58.84304687 102.8821582 59.39605469 103.67089844 59.96582031 C123.17200996 74.05592005 141.77545376 89.22168566 159.42138672 105.57910156 C161.38662452 107.3976016 163.35698011 109.20595694 165.34326172 111.00097656 C174.47371742 119.2647575 183.46444202 127.71935194 191.45263672 137.11035156 C193.4708108 139.42751439 195.55413372 141.67182364 197.65185547 143.91674805 C203.49279613 150.17166356 209.01156806 156.59773856 214.35107422 163.29003906 C215.27198607 164.41973115 216.19391533 165.54859438 217.11669922 166.67675781 C240.53275135 195.43052077 261.18914192 227.06235123 277.91357422 260.16503906 C278.26073486 260.84993408 278.60789551 261.5348291 278.96557617 262.24047852 C281.35107422 267.04390123 281.35107422 267.04390123 281.35107422 269.29003906 C282.01107422 269.29003906 282.67107422 269.29003906 283.35107422 269.29003906 C286.20264443 274.89174023 288.91086715 280.49454727 291.35107422 286.29003906 C292.14079991 287.99927053 292.93267642 289.70750903 293.72607422 291.41503906 C296.07529776 296.5438244 298.09833738 301.75749964 300.04248047 307.05175781 C301.31677295 310.36079956 301.31677295 310.36079956 303.11669922 313.64550781 C306.57261486 320.44674334 308.96603746 327.74564383 311.53857422 334.91503906 C311.82420227 335.70837646 312.10983032 336.50171387 312.40411377 337.3190918 C332.14531615 392.3064426 332.14531615 392.3064426 335.35107422 420.29003906 C335.68107422 420.62003906 336.01107422 420.95003906 336.35107422 421.29003906 C336.63813122 423.41334958 336.79853213 425.53750017 336.97216797 427.67285156 C337.30388302 430.4185775 337.30388302 430.4185775 338.31225586 433.48681641 C339.34729124 437.27618919 339.90915319 440.8584414 340.35107422 444.75878906 C340.43228516 445.47442017 340.51349609 446.19005127 340.59716797 446.92736816 C340.76814211 448.44994221 340.93605219 449.9728631 341.10107422 451.49609375 C341.34148557 453.70205571 341.59539477 455.90611507 341.85107422 458.11035156 C344.6374146 482.83052706 345.71299233 507.5751226 345.66674805 532.43432617 C345.66209661 535.13534104 345.66915042 537.83590753 345.68725586 540.53686523 C345.78204786 554.89180211 345.5446027 569.16609285 344.14404297 583.46582031 C344.04432693 584.56967575 343.9446109 585.67353119 343.84187317 586.81083679 C341.77676329 605.32626283 332.21689194 622.52795885 317.83935547 634.35644531 C300.94596875 646.63531196 281.77192107 651.84061786 261.03417969 648.96923828 C247.13349092 646.41503715 236.89296911 640.61180723 226.35107422 631.29003906 C225.70138672 630.74734375 225.05169922 630.20464844 224.38232422 629.64550781 C214.20620765 620.51013044 206.81438906 604.4287359 205.97998047 590.92675781 C205.77096329 583.5232743 206.3231129 576.20578438 207.07885742 568.84692383 C210.28707279 537.23952847 208.47040198 505.72775759 204.59454346 474.27783203 C204.37776465 472.50795182 204.17016972 470.73695223 203.96386719 468.96582031 C197.7820733 416.20011529 178.75634381 366.58870512 155.35107422 319.29003906 C154.96097168 318.49903809 154.57086914 317.70803711 154.16894531 316.89306641 C142.72142765 293.89008413 128.01648609 272.82374996 111.13623047 253.50878906 C108.70939164 250.72682309 106.39635673 247.86950792 104.10107422 244.97753906 C93.41422821 231.81399699 81.30521968 219.13188517 68.43701172 208.09472656 C66.10081921 206.0735263 63.82142571 203.99625067 61.53857422 201.91503906 C56.81573682 197.66377091 51.98378815 193.58408948 47.01660156 189.62109375 C45.839368 188.68027326 44.66553494 187.73519029 43.49414062 186.78710938 C15.29196568 164.00763457 -15.95617273 145.46874907 -48.64892578 129.91503906 C-49.32149414 129.5943042 -49.9940625 129.27356934 -50.68701172 128.94311523 C-54.06276404 127.37037781 -57.42957446 125.98227571 -60.95751953 124.78613281 C-61.65167969 124.54233887 -62.34583984 124.29854492 -63.06103516 124.04736328 C-64.95293016 123.39833566 -66.8611196 122.79735913 -68.77001953 122.20019531 C-71.91524809 120.11333403 -72.17143036 119.72016553 -73.03955078 116.25878906 C-73.83608813 111.09720621 -73.99323298 105.9429976 -73.96142578 100.72753906 C-73.95405396 99.28290283 -73.95405396 99.28290283 -73.9465332 97.80908203 C-73.71705599 83.65210312 -70.2325295 70.60979029 -65.64892578 57.29003906 C-65.33052734 56.35289062 -65.01212891 55.41574219 -64.68408203 54.45019531 C-56.97065626 33.49483689 -38.11353949 13.3426548 -17.83642578 3.79003906 C-14.14975972 2.31951496 -10.39209729 1.41970282 -6.49658203 0.68457031 C-1.45914326 -0.39107729 -1.45914326 -0.39107729 0 0 Z " fill="#02C38B" transform="translate(858.64892578125,74.7099609375)"/>
<path d="M0 0 C1.75588607 2.6338291 3.03960259 5.09170829 4.36328125 7.953125 C23.73295331 49.35425633 48.51015677 90.70637252 79.7097168 124.44165039 C81.87822803 126.86397522 83.88569332 129.35499708 85.89453125 131.91015625 C91.25397063 138.49050368 97.17523039 144.44232332 103.20239258 150.40820312 C105.06850509 152.25594598 106.92637712 154.11167965 108.78320312 155.96875 C114.68720108 161.8553592 120.62282642 167.62210387 127 173 C128.09544659 173.96030768 129.18923606 174.92250942 130.28125 175.88671875 C158.26863593 200.33314251 190.41337739 220.90351661 223.89208984 236.97851562 C226.1745539 238.08458809 228.44039356 239.22124522 230.70703125 240.359375 C251.59691345 250.72613389 273.66396875 258.38175314 296 265 C296.73395996 265.21962402 297.46791992 265.43924805 298.22412109 265.66552734 C318.91138418 271.75559219 340.64889206 275.88548946 362 278.875 C363.13175659 279.03669678 363.13175659 279.03669678 364.28637695 279.20166016 C378.09962329 280.96480111 392.01621031 281.07591043 405.91796875 280.9921875 C407.89592941 280.98051041 407.89592941 280.98051041 409.91384888 280.96859741 C415.40207909 280.93284933 420.89017234 280.89058129 426.37817383 280.82861328 C429.12242884 280.79814192 431.86652567 280.77581523 434.61091614 280.76223755 C437.16755907 280.74920089 439.7241785 280.72435461 442.28056335 280.6857605 C453.85317456 280.65127946 459.74248898 282.97144899 468 291 C469.10710327 292.06572739 469.10710327 292.06572739 470.23657227 293.15298462 C472.68654653 295.53848084 475.11169061 297.94695164 477.53125 300.36328125 C478.40777222 301.23647507 479.28429443 302.10966888 480.18737793 303.00932312 C482.0240118 304.84092492 483.8593206 306.6738563 485.69335938 308.50805664 C487.5761578 310.38938106 489.46082448 312.2685168 491.34960938 314.14379883 C494.08183172 316.85782211 496.80739532 319.57836307 499.53125 322.30078125 C500.38110474 323.14345047 501.23095947 323.98611969 502.10656738 324.85432434 C502.88157593 325.63240952 503.65658447 326.41049469 504.45507812 327.2121582 C505.14154419 327.89719925 505.82801025 328.5822403 506.53527832 329.28804016 C508 331 508 331 508 333 C508.54650208 333.221185 509.09300415 333.44237 509.65606689 333.67025757 C512.73951222 335.41953449 515.03516292 337.77261651 517.50292969 340.27587891 C518.03996017 340.81261734 518.57699066 341.34935577 519.1302948 341.90235901 C520.89893859 343.67239283 522.66039824 345.44939857 524.421875 347.2265625 C525.64883466 348.45725344 526.87623749 349.6875027 528.10406494 350.91732788 C531.33067488 354.15156516 534.55123291 357.39176408 537.77056885 360.63323975 C541.05825672 363.94140534 544.35163068 367.24389946 547.64453125 370.546875 C554.10193298 377.02571079 560.55295568 383.51085869 567 390 C563.79039951 392.51928309 561.20178574 393.73783042 557.25 394.83203125 C556.09733643 395.15284668 554.94467285 395.47366211 553.75708008 395.80419922 C552.51724365 396.13693848 551.27740723 396.46967773 550 396.8125 C549.0477504 397.07187347 549.0477504 397.07187347 548.07626343 397.33648682 C534.17097799 401.11953123 520.12695256 404.16029361 506 407 C505.13383057 407.17692383 504.26766113 407.35384766 503.37524414 407.53613281 C474.43593546 413.41242418 446.38884919 416.18761107 416.87451172 416.18530273 C413.76646184 416.18748842 410.65876892 416.20573892 407.55078125 416.22460938 C393.27258198 416.26527157 379.20274597 415.43657324 365 414 C364.1493396 413.91487152 363.2986792 413.82974304 362.42224121 413.74203491 C357.83600607 413.27729687 353.25455743 412.77889317 348.67529297 412.25 C346.44178556 411.99330959 344.20730583 411.74652889 341.97265625 411.5 C340.51295441 411.3339161 339.05331615 411.1672722 337.59375 411 C336.32208984 410.855625 335.05042969 410.71125 333.74023438 410.5625 C330.37147766 410.05586714 327.20558797 409.32792417 323.9190979 408.46661377 C321.12531371 407.78732681 318.3163134 407.43852354 315.46484375 407.0859375 C308.38932018 406.11865073 301.47857819 404.68674733 294.52319336 403.078125 C292.56830973 402.62634265 290.61154476 402.18360208 288.65429688 401.7421875 C274.677513 398.5666692 260.92780525 394.77705116 247.25 390.5 C245.41501953 389.93345703 245.41501953 389.93345703 243.54296875 389.35546875 C201.11048409 376.14920882 159.93717771 357.51097966 121.84570312 334.70068359 C119.10788104 333.06447317 116.36040629 331.44590887 113.609375 329.83203125 C103.09401877 323.63636827 92.94814848 317.06773344 83 310 C81.77351257 309.13531018 80.54695095 308.27072558 79.3203125 307.40625 C61.88443157 295.07338063 45.09957427 282.02750925 29 268 C28.23945313 267.34128906 27.47890625 266.68257812 26.6953125 266.00390625 C-4.2862951 239.06608278 -4.2862951 239.06608278 -16.828125 224.453125 C-19.1763086 221.80086007 -21.59431681 219.22524069 -24.02514648 216.64892578 C-30.31657899 209.97803113 -36.28116591 203.17261178 -42 196 C-42.97979687 194.80957047 -43.96171168 193.62088217 -44.9453125 192.43359375 C-96.18936652 130.43190044 -96.18936652 130.43190044 -106 101 C-105.26826437 98.53505528 -104.48151812 96.20482653 -103.5625 93.8125 C-103.31951172 93.15830078 -103.07652344 92.50410156 -102.82617188 91.83007812 C-102.2256707 90.21696714 -101.61390797 88.6080565 -101 87 C-100.34 87 -99.68 87 -99 87 C-98.89816406 86.29101562 -98.79632813 85.58203125 -98.69140625 84.8515625 C-95.486285 71.63270085 -83.41108673 59.32684402 -75 49 C-74.56042969 48.43539062 -74.12085938 47.87078125 -73.66796875 47.2890625 C-70.84681559 43.72252104 -67.66375188 40.83279899 -64.2109375 37.90625 C-62.70564263 36.60839859 -61.23219333 35.2728898 -59.7890625 33.90625 C-46.71927709 21.57462523 -30.23162179 11.603558 -13.55859375 5.02734375 C-10.81292022 3.96893115 -10.81292022 3.96893115 -7.5625 2.25 C-5.0140447 1.00685107 -2.79483136 0.41100461 0 0 Z " fill="#8459FC" transform="translate(215,801)"/>
<path d="M0 0 C0.69351562 0.50015625 1.38703125 1.0003125 2.1015625 1.515625 C12.09052043 9.46051045 18.76747368 21.48296911 21 34 C21.79183713 42.04797697 21.26588403 50.03115626 20 58 C19.34 58 18.68 58 18 58 C17.896875 59.010625 17.79375 60.02125 17.6875 61.0625 C15.62410993 72.88009766 7.97791508 81.48935644 -0.4375 89.5625 C-1.89701844 90.97790855 -3.35407244 92.39586298 -4.80859375 93.81640625 C-5.44595459 94.42943604 -6.08331543 95.04246582 -6.73999023 95.67407227 C-8.59026474 97.57831394 -10.30889977 99.51101561 -12.03295898 101.52636719 C-16.96794868 107.20610311 -22.33386961 112.45789876 -27.6640625 117.76171875 C-28.78573264 118.88151862 -29.90717837 120.00154332 -31.02841187 121.1217804 C-33.96034814 124.04992773 -36.89527282 126.97506124 -39.83087158 129.89953613 C-42.81354326 132.87195948 -45.79337498 135.84722683 -48.7734375 138.82226562 C-54.01660178 144.05590221 -59.26222265 149.2870652 -64.50967407 154.5164032 C-65.33148163 155.33599014 -66.15328918 156.15557709 -67 157 C-68.23825531 158.22241646 -68.23825531 158.22241646 -69.50152588 159.4695282 C-72.11725171 162.11875334 -74.61824224 164.84728813 -77.11376953 167.60986328 C-82.16353699 173.15730805 -87.3862266 178.50788172 -92.71441269 183.78957748 C-94.23142576 185.29347857 -95.74498584 186.80078732 -97.25784302 188.30886841 C-100.46068967 191.50047223 -103.66753844 194.68803495 -106.875 197.875 C-110.61968227 201.59592425 -114.36262033 205.31857176 -118.10138321 209.04544449 C-119.58211528 210.5197671 -121.0658551 211.99101394 -122.54977417 213.46212769 C-126.93346082 217.82981565 -131.09715241 222.20225438 -135 227 C-136.65494966 228.67830187 -138.32408875 230.34262948 -140 232 C-141.08835747 233.08701647 -142.17599767 234.17475138 -143.26306152 235.26306152 C-164.75435384 256.75435384 -186.24564616 278.24564616 -207.73693848 299.73693848 C-208.29569294 300.29595793 -208.8544474 300.85497738 -209.43013382 301.43093681 C-210.87023898 302.87030535 -212.31306808 304.30694719 -213.75616455 305.74331665 C-215.5092316 307.50642152 -217.2253345 309.28271642 -218.90722656 311.11279297 C-231.81630033 325.04536473 -245.21031307 338.50169413 -258.60986328 351.95996094 C-261.38415072 354.74768596 -264.15093076 357.54256014 -266.91162109 360.34375 C-270.29697731 363.77868836 -273.69469454 367.20093726 -277.10138702 370.61471176 C-278.37971333 371.89968288 -279.65383893 373.18884929 -280.92333221 374.48254776 C-293.94307942 387.73685929 -307.03773425 397.01323395 -326.27075195 397.41235352 C-327.37765381 397.42065186 -328.48455566 397.4289502 -329.625 397.4375 C-331.21671021 397.4528479 -331.21671021 397.4528479 -332.84057617 397.46850586 C-351.91118526 397.25619779 -364.28887358 387.47749322 -377.10888672 374.5222168 C-378.37080503 373.26544815 -379.63379125 372.00975105 -380.89775085 370.7550354 C-384.29944101 367.37173083 -387.68537594 363.97306812 -391.06799078 360.57070518 C-394.62474794 356.99745909 -398.19420262 353.43693365 -401.76174927 349.87446594 C-407.74681092 343.89391296 -413.72164795 337.90329231 -419.69042969 331.90649414 C-426.57527876 324.98957701 -433.47604289 318.08885751 -440.38555515 311.19658345 C-447.05516863 304.5428723 -453.71338287 297.87786477 -460.36651993 291.20768166 C-463.18805782 288.37930052 -466.01346429 285.5548711 -468.84212875 282.73361778 C-472.17566957 279.4077782 -475.49905542 276.07210264 -478.81508827 272.72880936 C-480.02820885 271.5088449 -481.24467574 270.29219673 -482.46483803 269.07927513 C-495.4948201 256.11768898 -504.83264002 242.08972001 -505.3125 223.25 C-505.00472891 207.33139542 -499.52598976 193.80387385 -488.43359375 182.28125 C-477.46367902 171.99805545 -465.49036763 166.20646915 -450.33105469 166.47607422 C-426.51325112 167.64912537 -412.08928648 182.71287179 -396.375 198.625 C-394.21921181 200.80775159 -392.05986248 202.98689401 -389.8984375 205.1640625 C-389.42425385 205.64654449 -388.95007019 206.12902649 -388.46151733 206.62612915 C-385.7859428 209.32060297 -383.03153779 211.86581493 -380.15478516 214.34521484 C-375.77525587 218.14045261 -371.69774593 222.19288336 -367.625 226.3125 C-366.47185303 227.4713269 -366.47185303 227.4713269 -365.29541016 228.65356445 C-362.0414017 231.92376036 -358.79343734 235.1999349 -355.54492188 238.47558594 C-353.15704648 240.88165285 -350.76609207 243.28463038 -348.375 245.6875 C-347.65393066 246.41686768 -346.93286133 247.14623535 -346.18994141 247.89770508 C-342.16154637 251.94526514 -338.03729528 255.80767725 -333.69970703 259.52294922 C-331.70314389 261.2579689 -329.83151054 263.09217652 -328 265 C-325.04199472 264.29231642 -325.04199472 264.29231642 -322 263 C-321.29148435 261.68842545 -320.62737385 260.35226635 -320 259 C-318.7056427 257.47186279 -318.7056427 257.47186279 -317.22192383 256.01074219 C-316.66406693 255.45626404 -316.10621002 254.90178589 -315.53144836 254.33050537 C-314.92939072 253.74190735 -314.32733307 253.15330933 -313.70703125 252.546875 C-312.77065071 251.61829681 -312.77065071 251.61829681 -311.81535339 250.67095947 C-309.8191003 248.69248853 -307.816312 246.72081257 -305.8125 244.75 C-303.82736234 242.79267216 -301.8437716 240.83384057 -299.86320496 238.87188721 C-298.63274322 237.65347173 -297.39962165 236.43773379 -296.1632843 235.22528076 C-293.1962544 232.29203193 -290.36072525 229.30505933 -287.6394043 226.14160156 C-283.58573015 221.45109293 -279.21661404 217.10937356 -274.8125 212.75 C-273.52049683 211.46367676 -273.52049683 211.46367676 -272.20239258 210.15136719 C-268.54986017 206.51505061 -264.89136365 202.88475629 -261.23339844 199.25390625 C-258.54934844 196.58802403 -255.86836759 193.9190819 -253.1875 191.25 C-252.37063721 190.44143555 -251.55377441 189.63287109 -250.7121582 188.79980469 C-246.54915775 184.6544861 -242.58047769 180.42712825 -238.74969482 175.97454834 C-235.55706721 172.37163572 -232.1174963 169.01589702 -228.6953125 165.6328125 C-227.93072723 164.87201385 -227.16614197 164.11121521 -226.37838745 163.32736206 C-223.96302617 160.92410987 -221.54442602 158.52415959 -219.125 156.125 C-215.91642462 152.94295221 -212.71113336 149.75764885 -209.5078125 146.5703125 C-208.76935089 145.84014923 -208.03088928 145.10998596 -207.27005005 144.35769653 C-206.25296463 143.34556595 -206.25296463 143.34556595 -205.21533203 142.31298828 C-204.61689484 141.7197879 -204.01845764 141.12658752 -203.40188599 140.51541138 C-201.90079475 139.03417193 -201.90079475 139.03417193 -201 137 C-200.34 137 -199.68 137 -199 137 C-198.60514656 136.11667999 -198.60514656 136.11667999 -198.20231628 135.21551514 C-196.94533545 132.89926932 -195.63338087 131.39808541 -193.76293945 129.55175781 C-193.10497879 128.8971759 -192.44701813 128.24259399 -191.76911926 127.56817627 C-191.05769272 126.87020935 -190.34626617 126.17224243 -189.61328125 125.453125 C-188.87804733 124.72309265 -188.14281342 123.9930603 -187.38529968 123.24090576 C-185.0323975 120.90580512 -182.67294328 118.57747553 -180.3125 116.25 C-177.97073528 113.93600133 -175.63049486 111.6205138 -173.29325867 109.30194092 C-171.84020192 107.86097625 -170.38448192 106.42269026 -168.9256134 104.98760986 C-164.98008133 101.08032495 -161.25353955 97.06028266 -157.62858582 92.85467529 C-155.29677445 90.1991487 -152.82765892 87.73358789 -150.3125 85.25 C-149.80630127 84.74758789 -149.30010254 84.24517578 -148.77856445 83.72753906 C-146.65540351 81.6204205 -144.52619158 79.51945787 -142.39746094 77.41796875 C-135.25743361 70.42045297 -135.25743361 70.42045297 -128.53125 63.03125 C-123.04021848 56.59623969 -116.83905348 50.7859377 -110.82470703 44.84521484 C-105.34225756 39.42387804 -99.91184953 34.02154363 -94.90087891 28.15429688 C-90.8127993 23.52121 -86.46957533 19.12644075 -82.13256836 14.72753906 C-81.00865271 13.58209371 -79.89103438 12.43043294 -78.7800293 11.27246094 C-57.15673057 -11.25034141 -26.99073968 -19.68277767 0 0 Z " fill="#02C38B" transform="translate(1163,773)"/>
<path d="M0 0 C0.99112793 -0.0095874 1.98225586 -0.0191748 3.00341797 -0.02905273 C11.8690971 0.01195756 19.89631589 1.52511279 28.23828125 4.48046875 C30.53518849 5.26197259 32.84328321 5.87666014 35.1875 6.5 C53.00008454 11.8602685 68.37026113 23.43507857 81.5 36.25 C82.36238281 37.03890625 83.22476563 37.8278125 84.11328125 38.640625 C99.40014629 53.00029293 114.12253373 77.74574618 115.2265625 99.01953125 C115.44626583 101.41656982 115.44626583 101.41656982 116.4921875 104.24609375 C122.48871294 124.62182136 116.76264072 152.62469943 107.5 171.25 C107.15936523 171.94657715 106.81873047 172.6431543 106.46777344 173.36083984 C99.76128952 186.82703374 91.83620686 198.27014656 81.5 209.25 C80.96117187 209.85328125 80.42234375 210.4565625 79.8671875 211.078125 C61.98722298 230.30582554 33.55259524 242.71947475 7.61645508 244.51953125 C3.71890888 244.61393974 -0.1642236 244.6112041 -4.0625 244.5625 C-6.00286133 244.56733398 -6.00286133 244.56733398 -7.98242188 244.57226562 C-23.42377408 244.48712534 -38.82182092 242.69980896 -52.5703125 235.2265625 C-54.687775 234.15497217 -56.82373646 233.41040229 -59.0625 232.625 C-80.57204242 224.1465454 -98.31914146 205.21920629 -110.5 186.25 C-111.20382812 185.15816406 -111.90765625 184.06632813 -112.6328125 182.94140625 C-121.02471434 169.14103536 -127.10400412 152.55811132 -126.5 136.25 C-127.16 136.25 -127.82 136.25 -128.5 136.25 C-129.47379347 99.23086685 -120.45109059 66.94548966 -94.65893555 39.50683594 C-93.28335988 38.07748016 -91.89182326 36.66353965 -90.5 35.25 C-89.68402344 34.40953125 -88.86804688 33.5690625 -88.02734375 32.703125 C-79.68756786 24.60825752 -64.54327807 11.25 -52.5 11.25 C-52.5 10.59 -52.5 9.93 -52.5 9.25 C-34.62199887 2.9516673 -18.89697459 0.16068364 0 0 Z " fill="#017EFA" transform="translate(634.5,323.75)"/>
<path d="M0 0 C2.58185938 0.02372943 5.16268669 0.02051133 7.74462891 0.01391602 C39.49038271 0.06671993 69.91315592 8.64384549 96.45166016 26.33618164 C95.00781964 30.47115945 92.96059851 33.61578838 90.38916016 37.14868164 C67.31174317 69.70759074 53.05637082 111.02310826 53.19628906 150.97924805 C53.19073236 152.94854777 53.18517131 154.91784748 53.17944503 156.88714671 C53.17514734 158.97144717 53.17556307 161.05569953 53.17726517 163.1400032 C53.18012976 167.5025301 53.16563572 171.86489926 53.14828491 176.22738647 C53.10153832 188.62056203 53.07728922 201.01372236 53.07080078 213.40698242 C53.06705255 220.27702956 53.04905893 227.14689364 53.01570642 234.01686227 C52.99551102 238.35290089 52.99311026 242.68846707 53.0039866 247.02453351 C53.00720165 250.34548274 52.98451682 253.66616414 52.96582031 256.98706055 C52.97807899 258.78394318 52.97807899 258.78394318 52.99058533 260.61712646 C52.97956284 261.71306122 52.96854034 262.80899597 52.95718384 263.93814087 C52.9560943 264.88968363 52.95500477 265.84122639 52.95388222 266.82160378 C52.29401313 270.12550523 51.10348098 271.31019257 48.45166016 273.33618164 C46.49816513 273.85351276 46.49816513 273.85351276 44.41790771 273.87776184 C43.6246257 273.89626694 42.83134369 273.91477203 42.01402283 273.93383789 C40.72196678 273.93347534 40.72196678 273.93347534 39.40380859 273.93310547 C38.48948563 273.94814621 37.57516266 273.96318695 36.63313293 273.97868347 C33.608903 274.02179331 30.58554787 274.03446151 27.56103516 274.04321289 C25.45599032 274.05860749 23.35094877 274.07445767 21.24591064 274.09074402 C16.83085875 274.11921833 12.41611548 274.13061493 8.00097656 274.13232422 C2.35324777 274.13750087 -3.29205742 274.20243211 -8.93915176 274.2826128 C-13.28879567 274.33469734 -17.63785825 274.34588557 -21.98778534 274.34583092 C-24.0690058 274.35238353 -26.15023524 274.37361844 -28.23114777 274.4100132 C-44.49204382 274.67002887 -44.49204382 274.67002887 -49.55206299 271.38777161 C-51.59476888 269.12536831 -53.0712346 266.99127796 -54.54833984 264.33618164 C-55.45269752 263.14687417 -56.37125916 261.96798459 -57.31396484 260.80883789 C-58.14815849 259.67656518 -58.97617908 258.53972161 -59.79833984 257.39868164 C-60.25668213 256.76663818 -60.71502441 256.13459473 -61.18725586 255.48339844 C-89.58823192 215.9930208 -112.7406873 172.41565817 -127.73583984 126.08618164 C-128.12255859 124.9339209 -128.50927734 123.78166016 -128.90771484 122.59448242 C-134.91557434 103.30448705 -130.52080294 84.06235122 -121.58740234 66.44067383 C-105.37684218 35.9830419 -76.8056137 17.08109055 -44.82177734 6.05102539 C-29.96286193 1.55919234 -15.45782298 -0.15137438 0 0 Z " fill="#02C38B" transform="translate(353.54833984375,618.663818359375)"/>
<path d="M0 0 C0.76892075 -0.00974854 1.53784149 -0.01949707 2.33006287 -0.02954102 C46.12488453 -0.47004138 86.31517157 8.87151392 119.25390625 39.5859375 C140.31598582 61.12381706 148.06310098 88.81647729 148.09765625 118.23828125 C148.099328 118.98795166 148.10099976 119.73762207 148.10272217 120.51000977 C148.10439044 133.04341979 147.44581809 145.39494927 145.24438477 157.76220703 C144.80170389 160.21761834 144.80170389 160.21761834 144.74584961 162.64794922 C143.95577417 171.91804333 136.54251859 177.37202663 130.16015625 183.36328125 C128.38662889 185.06383093 126.61887575 186.77017055 124.85282898 188.47848511 C123.75869358 189.53295897 122.65934666 190.58206689 121.55354309 191.6242981 C118.72994241 194.30551305 116.09373256 197.06102983 113.55541992 200.01513672 C109.34709572 204.89139667 104.79716989 209.39537685 100.22265625 213.92578125 C98.86406494 215.27869263 98.86406494 215.27869263 97.47802734 216.65893555 C94.11844319 220.00433569 90.75434363 223.34516517 87.38989258 226.68566895 C84.08131274 229.97119925 80.77663144 233.26061916 77.47265625 236.55078125 C76.6120459 237.40309326 75.75143555 238.25540527 74.86474609 239.13354492 C68.50310417 245.46948957 62.5741783 251.86176645 57.29101562 259.12744141 C51.48974121 266.55415562 45.51048952 273.07771474 35.8624115 274.58704758 C26.53763506 275.60520093 17.1523796 275.17238604 7.80499268 274.71777344 C4.49760671 274.57713498 1.19116261 274.52134378 -2.11862946 274.46910667 C-8.94600124 274.35968206 -15.77470836 274.19914357 -22.59570312 273.88037109 C-24.39170959 273.80440201 -24.39170959 273.80440201 -26.22399902 273.72689819 C-29.48485736 273.18279878 -30.20675767 272.81223917 -32.15234375 270.23828125 C-32.53151798 268.01244736 -32.53151798 268.01244736 -32.53761292 265.36273193 C-32.54726074 264.35690567 -32.55690857 263.35107941 -32.56684875 262.31477356 C-32.56227158 261.21155258 -32.5576944 260.1083316 -32.55297852 258.97167969 C-32.56344711 257.2269059 -32.56344711 257.2269059 -32.5741272 255.44688416 C-32.59420196 251.5804023 -32.59360425 247.7141858 -32.59375 243.84765625 C-32.60367505 241.14933282 -32.61865603 238.45104529 -32.6337738 235.75274658 C-32.67100256 228.62011004 -32.69023825 221.48751047 -32.70532227 214.35479736 C-32.72787212 203.69359046 -32.76287989 193.03245274 -32.81714481 182.37135911 C-32.83984986 177.754363 -32.84680382 173.1375056 -32.85023499 168.52044678 C-32.95301419 132.67779511 -37.56179279 99.78645113 -53.15234375 67.23828125 C-53.46929199 66.55813965 -53.78624023 65.87799805 -54.11279297 65.17724609 C-60.25989372 51.98758824 -67.61006685 39.27637453 -77.15234375 28.23828125 C-75.82215841 25.09510868 -74.69273756 23.61396969 -71.72265625 21.94140625 C-71.02043945 21.54397217 -70.31822266 21.14653809 -69.59472656 20.73706055 C-68.44762207 20.11891479 -68.44762207 20.11891479 -67.27734375 19.48828125 C-66.47651367 19.05362549 -65.67568359 18.61896973 -64.85058594 18.17114258 C-44.92716855 7.60879577 -22.72562133 0.23939299 0 0 Z " fill="#FCA502" transform="translate(880.15234375,618.76171875)"/>
<path d="M0 0 C1.62615234 0.00773437 1.62615234 0.00773437 3.28515625 0.015625 C24.50977938 0.93415583 45.22046245 14.58005925 59.37109375 29.5 C76.84691352 50.2120827 83.78369089 75.83749967 81.7265625 102.55078125 C79.07147444 124.66816576 68.38696148 147.57825676 51 162 C36.70319649 172.97931319 18.50013321 183.58395503 0 184 C-1.30324219 184.05027344 -2.60648437 184.10054687 -3.94921875 184.15234375 C-30.23851962 184.86722825 -53.31500143 176.85666226 -73.078125 159.13671875 C-89.29399217 143.71887654 -100.42808165 121.9696681 -101.3359375 99.4921875 C-101.95692557 71.90885266 -95.37137912 48.46263169 -76.09765625 28.1640625 C-75.40542969 27.44992187 -74.71320313 26.73578125 -74 26 C-73.46246094 25.38898438 -72.92492187 24.77796875 -72.37109375 24.1484375 C-53.68729909 3.63840727 -26.12122768 -0.38887626 0 0 Z " fill="#03C38B" transform="translate(369,415)"/>
<path d="M0 0 C19.53905248 14.98716545 33.97268401 35.00584662 38.21386719 59.76416016 C41.40933319 85.26318249 36.36088126 108.81183135 21.83984375 130.078125 C6.33801173 149.76881498 -14.83715722 164.81010476 -40.25390625 168.05859375 C-66.35233659 169.73725492 -90.62745923 164.64103416 -111.1328125 147.359375 C-130.65139381 129.89366619 -141.96281463 107.24086866 -143.61425781 81.01708984 C-144.4265611 64.70617633 -141.59867483 50.02067523 -134.47265625 35.265625 C-134.055 34.37875 -133.63734375 33.491875 -133.20703125 32.578125 C-121.77587296 9.97859367 -102.2565921 -4.83631328 -78.47265625 -12.734375 C-77.60253906 -13.0540625 -76.73242188 -13.37375 -75.8359375 -13.703125 C-51.18958861 -21.47482041 -20.79780663 -14.58803498 0 0 Z " fill="#FCA502" transform="translate(945.47265625,430.734375)"/>
<path d="M0 0 C0.33 0 0.66 0 1 0 C1 33.99 1 67.98 1 103 C-32.66 103 -66.32 103 -101 103 C-101 102.67 -101 102.34 -101 102 C-100.04222656 101.86464844 -99.08445312 101.72929688 -98.09765625 101.58984375 C-86.58617363 99.79076388 -75.21356548 96.52777291 -65.26171875 90.28125 C-63 89 -63 89 -59 89 C-59 88.34 -59 87.68 -59 87 C-56.9414928 85.61446631 -54.87894708 84.3312497 -52.75 83.0625 C-45.33557249 78.4651587 -39.15612901 73.15612901 -33 67 C-32.19820312 66.19820312 -31.39640625 65.39640625 -30.5703125 64.5703125 C-24.35044563 58.00609314 -19.65285787 50.70629585 -15 43 C-14.505 42.195625 -14.01 41.39125 -13.5 40.5625 C-6.32178445 28.35953356 -2.12859029 13.94226639 0 0 Z " fill="#030303" transform="translate(1253,1151)"/>
<path d="M0 0 C0.33 0 0.66 0 1 0 C1.12528076 0.60360352 1.25056152 1.20720703 1.37963867 1.82910156 C4.55661317 16.94602511 8.36163808 30.10200921 16.40942383 43.37109375 C19 47.69224699 19 47.69224699 19 51 C19.66 51 20.32 51 21 51 C22.62109375 52.79296875 22.62109375 52.79296875 24.4375 55.1875 C25.06527344 56.01378906 25.69304688 56.84007812 26.33984375 57.69140625 C28 60 28 60 29.5 62.625 C39.10796503 77.8376113 59.63259233 89.11837871 76 95 C76.82371094 95.33644531 77.64742188 95.67289063 78.49609375 96.01953125 C86.46079382 99.17937511 94.58539314 100.60636373 103 102 C103 102.33 103 102.66 103 103 C69.01 103 35.02 103 0 103 C0 69.01 0 35.02 0 0 Z " fill="#020202" transform="translate(0,1151)"/>
<path d="M0 0 C33.99 0 67.98 0 103 0 C103 33.99 103 67.98 103 103 C102.67 103 102.34 103 102 103 C101.89042969 102.4330542 101.78085938 101.8661084 101.66796875 101.28198242 C98.23258718 83.9322581 93.4821172 67.57374358 83.25 52.93359375 C82 51 82 51 82 49 C81.34 49 80.68 49 80 49 C79.11807698 47.65947701 78.23997378 46.31636529 77.375 44.96484375 C59.50464053 19.42850621 29.55722324 6.27491821 0 1 C0 0.67 0 0.34 0 0 Z " fill="#020202" transform="translate(1151,0)"/>
<path d="M0 0 C33.99 0 67.98 0 103 0 C103 0.33 103 0.66 103 1 C101.70707031 1.23074219 100.41414063 1.46148437 99.08203125 1.69921875 C76.36821253 5.89014614 55.45959835 14.35852763 39 31 C37.90985603 31.91284583 36.80800786 32.81219233 35.6875 33.6875 C31.9525542 36.90129057 28.22425989 40.55148021 26 45 C25.34 45 24.68 45 24 45 C23.67 46.32 23.34 47.64 23 49 C22.34 49 21.68 49 21 49 C21 49.99 21 50.98 21 52 C20.34 52 19.68 52 19 52 C18.76023437 52.63679688 18.52046875 53.27359375 18.2734375 53.9296875 C16.90534377 57.22822025 15.3809598 60.42162879 13.82666016 63.63549805 C7.52729749 76.68600619 3.36508895 88.71987962 1 103 C0.67 103 0.34 103 0 103 C0 69.01 0 35.02 0 0 Z " fill="#020101" transform="translate(0,0)"/>
<path d="M0 0 C0.495 0.99 0.495 0.99 1 2 C-8.75624462 13.416882 -8.75624462 13.416882 -13 17 C-13.66 17 -14.32 17 -15 17 C-15.226875 17.5775 -15.45375 18.155 -15.6875 18.75 C-17.3408693 21.58434736 -19.42963944 22.96762189 -22 25 C-22.825 25.99 -23.65 26.98 -24.5 28 C-26.81455197 30.77746237 -29.1090619 32.85244598 -32 35 C-32.66 34.67 -33.32 34.34 -34 34 C-22.78 22.78 -11.56 11.56 0 0 Z " fill="#0EC18B" transform="translate(956,917)"/>
<path d="M0 0 C0.33 0 0.66 0 1 0 C0.67 14.52 0.34 29.04 0 44 C-0.33 44 -0.66 44 -1 44 C-1.19275497 38.53772041 -1.37139829 33.07522759 -1.53710938 27.61206055 C-1.59542602 25.75451355 -1.65756395 23.89708235 -1.72363281 22.03979492 C-1.81805703 19.36658823 -1.89862759 16.6932633 -1.9765625 14.01953125 C-2.00875885 13.19226028 -2.0409552 12.36498932 -2.0741272 11.51264954 C-2.18603059 7.1831949 -2.04198794 3.94807567 0 0 Z " fill="#359CFC" transform="translate(176,583)"/>
<path d="M0 0 C0 4.24988312 -2.43507821 6.11221476 -5.1875 9.0625 C-5.91163086 9.87557617 -5.91163086 9.87557617 -6.65039062 10.70507812 C-9.52159022 13.82293111 -11.91283846 15.79701461 -16 17 C-11.01595832 10.96668638 -5.58084697 5.4815829 0 0 Z " fill="#19C491" transform="translate(903,971)"/>
<path d="M0 0 C0 3 0 3 -1.25341797 4.62573242 C-2.11410889 5.4819519 -2.11410889 5.4819519 -2.9921875 6.35546875 C-3.61480469 6.97744141 -4.23742188 7.59941406 -4.87890625 8.24023438 C-5.53761719 8.88283203 -6.19632813 9.52542969 -6.875 10.1875 C-7.85146484 11.16879883 -7.85146484 11.16879883 -8.84765625 12.16992188 C-13.73313673 17 -13.73313673 17 -16 17 C-13.6595099 9.97852971 -5.37472625 4.79029 0 0 Z " fill="#CFCECF" transform="translate(44,25)"/>
<path d="M0 0 C0.33 0 0.66 0 1 0 C1.05410136 3.06273831 1.09372225 6.12451452 1.125 9.1875 C1.15013672 10.48397461 1.15013672 10.48397461 1.17578125 11.80664062 C1.21038233 16.32208103 1.15567916 19.90081483 -1 24 C-1.33 24 -1.66 24 -2 24 C-1.85790331 21.3122562 -1.7114277 18.62486698 -1.5625 15.9375 C-1.52318359 15.18533203 -1.48386719 14.43316406 -1.44335938 13.65820312 C-1.18419281 9.05301259 -0.7200579 4.55633276 0 0 Z " fill="#439DF9" transform="translate(41,533)"/>
<path d="M0 0 C0.33 0 0.66 0 1 0 C1 4.95 1 9.9 1 15 C-0.98 15.99 -0.98 15.99 -3 17 C-2.25339288 11.27601207 -1.17122859 5.65146223 0 0 Z " fill="#1A191B" transform="translate(1253,1151)"/>
<path d="M0 0 C0 3 0 3 -1.390625 4.6484375 C-2.00421875 5.21820312 -2.6178125 5.78796875 -3.25 6.375 C-6.0934267 9.0915395 -8.61949737 11.85773653 -11 15 C-11.99 14.67 -12.98 14.34 -14 14 C-9.38 9.38 -4.76 4.76 0 0 Z " fill="#18C592" transform="translate(1052,818)"/>
<path d="M0 0 C5.28 0 10.56 0 16 0 C15.67 0.66 15.34 1.32 15 2 C15.66 2.66 16.32 3.32 17 4 C15.10399631 3.68853528 13.20820413 3.37578283 11.3125 3.0625 C10.25675781 2.88847656 9.20101563 2.71445312 8.11328125 2.53515625 C5.39750396 2.06832879 2.69875765 1.55577384 0 1 C0 0.67 0 0.34 0 0 Z " fill="#2C2A29" transform="translate(1151,0)"/>
<path d="M0 0 C0.33 0.66 0.66 1.32 1 2 C-2.07881696 5.87051275 -5.00073014 9.02911382 -9 12 C-9.66 11.67 -10.32 11.34 -11 11 C-7.37 7.37 -3.74 3.74 0 0 Z " fill="#29C89A" transform="translate(933,940)"/>
<path d="M0 0 C0.33 0 0.66 0 1 0 C1.16575651 4.30966915 1.23241672 7.27930547 -1 11 C-1.67966676 12.66140763 -2.34938905 14.32700041 -3 16 C-4.49828872 12.11764181 -3.43110582 9.56550712 -2.0625 5.75 C-1.68222656 4.67234375 -1.30195312 3.5946875 -0.91015625 2.484375 C-0.45962891 1.25460937 -0.45962891 1.25460937 0 0 Z " fill="#3B97FB" transform="translate(65,430)"/>
<path d="M0 0 C-1.36508501 3.11728368 -2.86919698 5.08663738 -5.4375 7.3125 C-6.03433594 7.84488281 -6.63117188 8.37726563 -7.24609375 8.92578125 C-7.82488281 9.28027344 -8.40367187 9.63476562 -9 10 C-9.99 9.67 -10.98 9.34 -12 9 C-10.38050958 7.49405319 -8.75424026 5.99539332 -7.125 4.5 C-6.22007812 3.6646875 -5.31515625 2.829375 -4.3828125 1.96875 C-2 0 -2 0 0 0 Z " fill="#1888F9" transform="translate(242,166)"/>
<path d="M0 0 C1.76923828 0.04060547 1.76923828 0.04060547 3.57421875 0.08203125 C4.47785156 0.11683594 5.38148437 0.15164063 6.3125 0.1875 C6.3125 0.5175 6.3125 0.8475 6.3125 1.1875 C0.93222975 2.37838986 -4.14041384 3.4794519 -9.6875 3.1875 C-6.99455929 -0.5165087 -4.35133403 -0.12924755 0 0 Z " fill="#151415" transform="translate(96.6875,-0.1875)"/>
<path d="M0 0 C0.33 0 0.66 0 1 0 C1.223293 2.06093408 1.42802887 4.1238839 1.625 6.1875 C1.74101563 7.33605469 1.85703125 8.48460937 1.9765625 9.66796875 C2.00023426 13.03330416 1.47419799 15.01221706 0 18 C-0.33 18 -0.66 18 -1 18 C-0.505 9.09 -0.505 9.09 0 0 Z " fill="#4098F8" transform="translate(38,560)"/>
<path d="M0 0 C0.66 0.66 1.32 1.32 2 2 C0.90716423 3.03295436 -0.19970579 4.05107835 -1.3125 5.0625 C-1.92738281 5.63097656 -2.54226563 6.19945312 -3.17578125 6.78515625 C-3.77777344 7.18605469 -4.37976563 7.58695312 -5 8 C-5.99 7.67 -6.98 7.34 -8 7 C-5.36 4.69 -2.72 2.38 0 0 Z " fill="#1A87F9" transform="translate(553,351)"/>
<path d="M0 0 C4.29 0.66 8.58 1.32 13 2 C13 2.33 13 2.66 13 3 C8.71 3 4.42 3 0 3 C0 2.01 0 1.02 0 0 Z " fill="#212322" transform="translate(90,1251)"/>
<path d="M0 0 C0.66 0.66 1.32 1.32 2 2 C0.02 3.98 -1.96 5.96 -4 8 C-4.99 7.67 -5.98 7.34 -7 7 C-4.69 4.69 -2.38 2.38 0 0 Z " fill="#19C995" transform="translate(677,953)"/>
<path d="M0 0 C0.33 0.66 0.66 1.32 1 2 C0.04882866 3.1725131 -0.91117009 4.33787015 -1.875 5.5 C-2.40867187 6.1496875 -2.94234375 6.799375 -3.4921875 7.46875 C-3.98976563 7.9740625 -4.48734375 8.479375 -5 9 C-5.66 9 -6.32 9 -7 9 C-5.44499019 5.18315774 -2.96404505 2.80804268 0 0 Z " fill="#19C592" transform="translate(941,932)"/>
<path d="M0 0 C0.95651196 2.58258228 1.03620881 3.8650399 0.3125 6.5625 C-1.12035293 9.22351258 -2.47085828 10.39821025 -5 12 C-4.67 10.35 -4.34 8.7 -4 7 C-3.34 7 -2.68 7 -2 7 C-1.855625 6.21625 -1.71125 5.4325 -1.5625 4.625 C-1 2 -1 2 0 0 Z " fill="#2B90FA" transform="translate(100,346)"/>
<path d="M0 0 C0.75 1.5625 0.75 1.5625 1 4 C-0.13084437 6.50286409 -1.52139516 8.67007722 -3 11 C-3.66 11 -4.32 11 -5 11 C-3.77472971 6.94718288 -2.30119506 3.55639236 0 0 Z " fill="#2C8EFA" transform="translate(110,327)"/>
<path d="M0 0 C0.66 0.66 1.32 1.32 2 2 C-1.465 4.97 -1.465 4.97 -5 8 C-5.66 7.67 -6.32 7.34 -7 7 C-4.69 4.69 -2.38 2.38 0 0 Z " fill="#2DC99A" transform="translate(971,901)"/>
<path d="M0 0 C2.97 1.65 5.94 3.3 9 5 C8.34 5.66 7.68 6.32 7 7 C4.36 5.35 1.72 3.7 -1 2 C-0.67 1.34 -0.34 0.68 0 0 Z " fill="#0E82FA" transform="translate(691,341)"/>
<path d="M0 0 C1.61949011 2.57213134 2.04408751 3.67669159 1.625 6.75 C1.41875 7.4925 1.2125 8.235 1 9 C0.34 9 -0.32 9 -1 9 C-1.33 9.99 -1.66 10.98 -2 12 C-1 3.42857143 -1 3.42857143 0 0 Z " fill="#3894F7" transform="translate(56,460)"/>
<path d="M0 0 C4 2 4 2 5.3125 3.875 C6 6 6 6 5 10 C3.35 6.7 1.7 3.4 0 0 Z " fill="#10C48C" transform="translate(999,366)"/>
<path d="M0 0 C0.99 0.33 1.98 0.66 3 1 C1.02 2.98 -0.96 4.96 -3 7 C-3.66 6.67 -4.32 6.34 -5 6 C-3.35 4.02 -1.7 2.04 0 0 Z " fill="#17C692" transform="translate(1034,836)"/>
<path d="M0 0 C0.33 0.66 0.66 1.32 1 2 C-0.21480305 5.42353587 -2.01771223 7.01180815 -5 9 C-5.66 8.67 -6.32 8.34 -7 8 C-4.69 5.36 -2.38 2.72 0 0 Z " fill="#E5F8F3" transform="translate(1187,697)"/>
<path d="M0 0 C-1.01454452 2.5363613 -1.6853556 3.79351461 -4 5.3125 C-4.66 5.539375 -5.32 5.76625 -6 6 C-6.66 5.67 -7.32 5.34 -8 5 C-2.25 0 -2.25 0 0 0 Z " fill="#E4F3FE" transform="translate(709,540)"/>
<path d="M0 0 C0.66 0 1.32 0 2 0 C0.55746343 3.36591866 -1.33264727 5.51047079 -4 8 C-4.66 7.67 -5.32 7.34 -6 7 C-5.04882866 5.8274869 -4.08882991 4.66212985 -3.125 3.5 C-2.59132812 2.8503125 -2.05765625 2.200625 -1.5078125 1.53125 C-0.76144531 0.77328125 -0.76144531 0.77328125 0 0 Z " fill="#1E8AF9" transform="translate(180,226)"/>
<path d="M0 0 C1.485 0.99 1.485 0.99 3 2 C3 2.66 3 3.32 3 4 C4.32 4.66 5.64 5.32 7 6 C6.34 6.66 5.68 7.32 5 8 C0 2.25 0 2.25 0 0 Z " fill="#218AFA" transform="translate(539,527)"/>
<path d="M0 0 C0.66 0.33 1.32 0.66 2 1 C2 1.66 2 2.32 2 3 C1.34 3 0.68 3 0 3 C0.33 4.32 0.66 5.64 1 7 C-0.98 7.99 -0.98 7.99 -3 9 C-2.01 6.03 -1.02 3.06 0 0 Z " fill="#3896FA" transform="translate(89,368)"/>
<path d="M0 0 C0.66 0 1.32 0 2 0 C0.79618552 2.49361571 -0.45428722 4.68143083 -2 7 C-2.99 6.67 -3.98 6.34 -5 6 C-3.38405168 3.95880212 -1.7143618 1.95927063 0 0 Z " fill="#1485F8" transform="translate(171,237)"/>
</svg>
